<?xml version="1.0" encoding="UTF-8" standalone="no"?>
<!-- Created with Inkscape (http://www.inkscape.org/) -->

<svg
   xmlns:dc="http://purl.org/dc/elements/1.1/"
   xmlns:cc="http://creativecommons.org/ns#"
   xmlns:rdf="http://www.w3.org/1999/02/22-rdf-syntax-ns#"
   xmlns:svg="http://www.w3.org/2000/svg"
   xmlns="http://www.w3.org/2000/svg"
   xmlns:sodipodi="http://sodipodi.sourceforge.net/DTD/sodipodi-0.dtd"
   xmlns:inkscape="http://www.inkscape.org/namespaces/inkscape"
   width="39.491302mm"
   height="20.500671mm"
   viewBox="0 0 139.92981 72.640174"
   id="svg3927"
   version="1.1"
   inkscape:version="0.91 r13725"
   sodipodi:docname="logo.svg">
  <defs
     id="defs3929" />
  <sodipodi:namedview
     id="base"
     pagecolor="#ffffff"
     bordercolor="#666666"
     borderopacity="1.0"
     inkscape:pageopacity="0.0"
     inkscape:pageshadow="2"
     inkscape:zoom="3.959798"
     inkscape:cx="38.029835"
     inkscape:cy="34.388883"
     inkscape:document-units="px"
     inkscape:current-layer="text4980"
     showgrid="false"
     fit-margin-top="0"
     fit-margin-left="0"
     fit-margin-right="0"
     fit-margin-bottom="0"
     inkscape:window-width="1331"
     inkscape:window-height="744"
     inkscape:window-x="35"
     inkscape:window-y="24"
     inkscape:window-maximized="1" />
  <metadata
     id="metadata3932">
    <rdf:RDF>
      <cc:Work
         rdf:about="">
        <dc:format>image/svg+xml</dc:format>
        <dc:type
           rdf:resource="http://purl.org/dc/dcmitype/StillImage" />
        <dc:title />
      </cc:Work>
    </rdf:RDF>
  </metadata>
  <g
     inkscape:label="Layer 1"
     inkscape:groupmode="layer"
     id="layer1"
     transform="translate(-52.892229,-10.327835)">
    <g
       id="g4996"
       transform="matrix(0.57267623,0,0,0.57267623,450.49982,82.078676)">
      <path
         sodipodi:nodetypes="cccccccccccccccccccc"
         inkscape:connector-curvature="0"
         id="path3839"
         d="m -667.73129,-72.191383 -6.82383,-10.804348 3.69624,1.137291 0,-3.411897 4.54919,0.568657 -1.99024,-4.833528 4.83353,0 c 23.01557,-33.609432 70.9306,-43.435752 99.22952,-29.854172 l 6.82382,6.53948 c 24.87229,-3.06902 61.13302,14.484816 39.23686,46.629361 0.77487,-3.159389 1.56626,-10.911772 -0.42648,-14.074111 -18.63442,2.696219 -35.37493,3.372662 -52.74234,15.211402 l 13.3633,23.030353 -14.2163,-2.274606 -34.97199,10.804373 -19.61845,-6.823818 -26.72657,3.411921 6.82382,-21.040087 -24.45201,4.833528 z"
         style="fill:#6481ff;fill-opacity:1;fill-rule:evenodd;stroke:none;stroke-width:0.79429096;stroke-linecap:butt;stroke-linejoin:miter;stroke-miterlimit:4;stroke-dasharray:none;stroke-opacity:1" />
      <g
         style="font-style:normal;font-weight:normal;font-size:112.80656433px;line-height:125%;font-family:sans-serif;letter-spacing:-5.68000031px;word-spacing:0px;fill:#6481ff;fill-opacity:1;stroke:#6481ff;stroke-width:17.29999924;stroke-linecap:butt;stroke-linejoin:miter;stroke-miterlimit:4;stroke-dasharray:none;stroke-opacity:1"
         id="text4980">
        <path
           d="m -662.05467,-69.01999 -0.78964,13.423981 q 0.56403,-0.33842 4.51226,-0.451226 3.94823,-0.225613 5.1891,0 l 4.17385,1.917712 q 1.57929,1.015259 3.72261,3.497003 1.35368,2.932971 -3.27139,4.512263 -4.39945,0.676839 -5.64033,0.676839 l -8.91172,0.451226 0,5.189102 q 0.67684,13.875208 0.67684,16.131339 0.56404,3.384197 0.56404,4.061036 l 0,2.481745 q 0,2.143324 -0.56404,2.707357 -1.35367,1.692099 -1.69209,1.804905 -4.62507,1.804905 -9.81418,-2.256131 l -1.8049,-2.368938 q 0,-0.451226 -0.67684,-3.384197 0.11281,-0.33842 -0.90245,-3.722616 0,-0.67684 0.22561,-1.692099 0.33842,-1.015259 0.33842,-2.256131 0,-1.240872 -0.56403,-2.594551 0,-1.466486 -0.22562,-2.594551 l 0,-1.128066 q 0.22562,-1.240872 0.22562,-2.594551 0.1128,-1.466485 0.33842,-2.820164 0.33842,-1.466485 0.1128,-2.707357 l 0,-0.33842 q -1.57929,-0.789646 -2.36893,-0.67684 -0.67684,0.112807 -1.5793,-0.676839 -0.78964,-0.902452 -0.90245,-1.692098 -0.1128,-0.789646 2.36894,-3.158584 0.22561,-0.451226 2.70736,-1.579292 l 0,-2.256131 0.56403,-6.317168 q -0.33842,-3.045777 0,-4.625069 0.33842,-1.579292 0.11281,-2.594551 l 0.67684,-2.481745 q -5.64033,1.01526 -8.12208,0.451227 -2.14332,-1.015259 -2.25613,-3.271391 -0.1128,-0.112806 0.56403,-3.27139 -0.33841,-1.579292 2.70736,-3.94823 2.48175,-1.128065 4.73788,-1.579292 4.28665,-1.466485 7.67084,-1.917711 6.65559,-1.128066 10.71663,-1.917712 l 5.30191,-1.917711 q 1.8049,-1.01526 2.48174,-0.902453 0.78965,0.112807 2.25613,-0.451226 0.22562,-0.564033 2.59455,-1.015259 4.85069,-0.902453 5.64033,1.015259 1.01526,0.225613 2.70736,1.579292 0.33842,0.112806 2.59455,4.399456 0.33842,0.902452 -0.33842,1.917711 -0.67684,0.902453 -2.14332,1.015259 l -3.04578,1.128066 q -1.35368,0.112807 -3.83542,1.240872 -4.62507,1.240872 -5.18911,1.240872 -0.56403,0 -1.12806,0.112807 -1.6921,0.33842 -3.60981,0.902453 -1.91771,0.564032 -3.27139,0.564032 -3.15859,0.67684 -3.49701,1.579292 -0.1128,0.225613 -0.1128,0.67684 l -0.22562,1.353678 0,1.128066 z"
           style="font-style:normal;font-variant:normal;font-weight:normal;font-stretch:normal;font-family:'Caveat Brush';-inkscape-font-specification:'Caveat Brush';letter-spacing:-5.68000031px;fill:#6481ff;fill-opacity:1;stroke:#6481ff;stroke-width:17.29999924;stroke-miterlimit:4;stroke-dasharray:none;stroke-opacity:1"
           id="path4153" />
        <path
           d="m -616.41473,-44.992192 q -0.11281,-2.481744 -1.12806,-3.722616 -1.01526,-1.353679 -3.72262,-1.579292 -0.78965,0.564033 -2.14333,3.835423 -1.24087,3.158584 -1.57929,6.768394 -1.12806,5.414715 -1.12806,10.82943 0.1128,5.527522 1.8049,8.122073 0.22561,0.451226 0.45123,0.338419 0.56403,0 1.8049,-2.256131 5.97875,-10.82943 5.64033,-22.3357 z m 3.497,21.546054 -1.69209,4.399456 q 0,0.225613 -3.27139,4.850682 -1.01526,2.143325 -3.83543,2.368938 -2.70736,0.225613 -5.30191,-0.564033 -3.497,-1.240872 -5.3019,-2.93297 -1.80491,-1.692099 -3.60981,-5.640329 -1.6921,-4.061036 -1.80491,-6.655587 -0.56403,-3.722616 -0.56403,-4.737876 l 0,-2.707357 q 0,-4.061036 0.33842,-4.737876 0.1128,-0.451226 0.56403,-2.368938 0.56403,-4.737875 2.70736,-9.024525 4.17384,-8.234879 8.5733,-8.460492 l 0.56403,0 q 0.22561,0.112806 0.67684,0.112806 l 1.46648,0 q 3.94823,0.33842 4.85069,0.67684 1.69209,0.451226 2.93297,0.451226 l 2.93297,0.564033 q 1.35368,-0.112807 3.497,0.564033 2.25613,0.676839 2.36894,1.015259 0.22561,0.338419 0.67684,2.481744 0.45122,2.143325 0.56403,3.158584 0.22561,0.902453 0.33842,1.917712 0.90245,8.234879 2.93297,15.341692 0.11281,0.33842 0.22561,1.015259 0.11281,0.67684 0.78965,2.707358 0.67684,1.917712 1.01526,3.27139 0.33842,1.353679 1.24087,3.60981 0.67684,1.692099 2.03052,3.94823 2.48174,3.497004 -2.59455,5.414715 -0.67684,0.225613 -2.36894,0.225613 -0.33842,0 -2.14332,-1.128065 -1.12807,0 -2.14333,-1.240872 l -0.90245,-0.225614 q -0.78965,-0.789646 -1.35368,-0.789646 -0.22561,-0.225613 -4.06104,-9.137331 -0.33842,1.240872 -0.33842,2.256131 z"
           style="font-style:normal;font-variant:normal;font-weight:normal;font-stretch:normal;font-family:'Caveat Brush';-inkscape-font-specification:'Caveat Brush';letter-spacing:-5.68000031px;fill:#6481ff;fill-opacity:1;stroke:#6481ff;stroke-width:17.29999924;stroke-miterlimit:4;stroke-dasharray:none;stroke-opacity:1"
           id="path4155" />
        <path
           d="m -591.45188,-72.96822 0.78964,-6.655587 0.11281,-3.497004 q 0,-1.466485 0.56403,-2.256131 l 1.12807,-1.579292 q 3.04578,-2.368938 3.94823,-2.707357 0.90245,-0.33842 2.59455,0.112806 1.80491,0.33842 2.14332,0.67684 l 1.24088,1.015259 q 1.01526,0.564033 1.01526,1.804905 0.56403,0.676839 0.33842,1.015259 -0.67684,0.789646 -2.25614,13.311174 l -0.90245,15.341693 -0.56403,3.045777 q 0,1.466486 0.11281,1.692099 l 0,2.030518 q -0.22562,2.256131 -0.45123,2.820164 0,0.564033 -0.22561,1.240872 0.22561,0.225614 0.22561,1.804905 0,1.466486 -0.33842,1.804905 -0.22561,1.804906 -0.22561,3.497004 0,1.579292 0.22561,3.384197 0.33842,1.692098 0.22561,3.384197 l 0.45123,4.286649 0,1.692099 q 0.22561,2.030518 0.22561,3.27139 l 0.56404,5.865941 0.45122,3.045778 q 0.33842,1.917711 -0.33842,3.7226163 -0.56403,1.804905 -1.8049,2.2561313 -3.49701,1.4664853 -7.67085,-1.9177116 l -0.90245,0 q -0.78965,-0.902453 -1.24087,-2.481744 -0.90246,-0.451227 -0.78965,-1.579292 0.11281,-1.128066 -0.45123,-2.030518 -0.56403,-0.902453 -0.56403,-1.579292 0,-1.466486 -0.22561,-2.594551 l 0.1128,-0.902453 q -0.33842,-0.33842 -0.33842,-1.015259 l -0.22561,-2.030518 0,-0.902453 q 0,-0.902452 -0.11281,-1.240872 0,-0.33842 0.33842,-1.128065 -0.33842,-0.451227 -0.1128,-3.271391 0.67684,-8.686105 0.67684,-11.957496 l 0.1128,-2.707357 0,-3.271391 q 0.11281,-2.707357 0.11281,-6.8812 0.11281,-4.173843 0.45123,-4.512263 l -0.11281,-1.015259 q 0,-2.707357 0.78965,-7.332426 0.90245,-4.737876 0.90245,-5.076296 z"
           style="font-style:normal;font-variant:normal;font-weight:normal;font-stretch:normal;font-family:'Caveat Brush';-inkscape-font-specification:'Caveat Brush';letter-spacing:-5.68000031px;fill:#6481ff;fill-opacity:1;stroke:#6481ff;stroke-width:17.29999924;stroke-miterlimit:4;stroke-dasharray:none;stroke-opacity:1"
           id="path4157" />
        <path
           d="m -562.36102,-60.221078 q 3.83542,-3.158584 11.84469,-0.902452 1.91771,0.902452 3.497,2.707357 0.78965,1.240872 1.24087,3.94823 0.45123,2.707357 0.11281,5.640328 -0.22561,2.932971 -1.57929,5.076295 -1.24087,2.030519 -4.51226,2.707358 -2.36894,0 -2.93298,-1.466485 -1.01525,-2.143325 -0.45122,-3.722617 0.33842,-2.368938 -0.67684,-5.640328 -0.22561,-0.225613 -1.12807,-0.225613 l -1.35368,2.481744 q -0.22561,0.451226 -1.91771,6.768394 -1.57929,6.204361 -1.6921,7.896459 -0.1128,1.579292 -0.33842,2.932971 0,7.783653 1.12807,10.942237 1.12807,3.045777 2.25613,3.722616 0.33842,0.33842 1.91771,0.33842 1.6921,0 3.60981,-0.902452 1.6921,-1.240873 3.15859,-3.271391 0,-0.451226 1.91771,-1.353678 l 0.90245,-0.902453 q 4.17384,-0.451226 4.39946,3.60981 0.22561,1.128066 -0.67684,2.481744 -0.56403,1.353679 -0.78965,1.466486 0,0.451226 -3.04578,5.189102 -1.12806,0 -1.57929,0.451226 -2.14332,1.6920985 -5.1891,1.2408723 -0.33842,-0.1128066 -0.67684,-0.1128066 -0.33842,0 -3.497,-0.5640328 l -1.57929,0 q -2.93297,-0.6768399 -3.94823,-1.4664849 -1.35368,-0.33842 -3.15859,-1.466486 l -1.57929,-1.579292 q -0.33842,-0.112806 -1.46648,-1.015259 -1.01526,-1.015259 -1.24088,-1.466485 -0.1128,-0.564033 -0.78964,-1.579292 -0.56404,-1.128066 -0.56404,-2.030518 l -0.56403,-2.256131 q 0,-1.353679 -0.33842,-1.692099 0,-0.225613 -0.33842,-1.240872 0,-1.240872 -0.22561,-3.384197 -0.33842,-3.497004 0.56403,-4.399456 0.11281,0 -0.22561,-2.030518 l 0,-4.061037 q 0,-1.804905 1.01526,-4.850682 0.1128,-1.466485 1.35368,-3.94823 l 0.56403,-1.466485 q 0.22561,-1.804905 1.91771,-3.722617 l 1.6921,-2.030518 1.35368,-2.256131 q 1.35368,-1.804905 3.60981,-2.594551 z"
           style="font-style:normal;font-variant:normal;font-weight:normal;font-stretch:normal;font-family:'Caveat Brush';-inkscape-font-specification:'Caveat Brush';letter-spacing:-5.68000031px;fill:#6481ff;fill-opacity:1;stroke:#6481ff;stroke-width:17.29999924;stroke-miterlimit:4;stroke-dasharray:none;stroke-opacity:1"
           id="path4159" />
        <path
           d="m -515.96317,-39.915896 -0.56403,-2.932971 q 0,-0.33842 -0.22562,-0.789646 -0.1128,-0.451226 -0.33842,-1.692098 -0.90245,-0.67684 -1.24087,-1.01526 l -0.56403,-0.902452 -0.33842,-1.015259 q -0.56403,-0.33842 -0.67684,-0.902453 0,-0.676839 -0.45123,-1.015259 -0.33842,-0.451226 -0.56403,-0.789646 -0.22561,-0.451226 -0.45123,-0.564032 -1.01525,-0.67684 -2.70735,-0.112807 -1.6921,0.564033 -2.03052,1.579292 -1.91771,4.286649 -1.91771,5.527521 -1.57929,5.414716 -0.90246,7.670847 -0.22561,3.60981 0.90246,9.926978 l 0,1.240872 q 1.01526,1.353679 1.91771,3.60981 1.12806,1.466485 1.46648,2.143325 0.45123,0.564032 0.56404,0.676839 1.12806,0.789646 1.35368,1.128066 0.90245,-0.451227 1.24087,-0.67684 l 0,-0.789646 q 0.56403,-0.451226 1.01526,-0.676839 -0.11281,0 0.78964,-0.789646 l 0.56404,-0.564033 q 1.69209,-3.60981 1.69209,-3.722617 0,-0.225613 -0.1128,-0.789646 -0.45123,-1.015259 0.56403,-1.579291 0,0 1.35368,-3.94823 l 0,-0.67684 q 0.22561,-0.676839 -0.22561,-1.015259 l 0,-0.789646 q 0.22561,-0.451226 0.22561,-0.902452 0.45123,-1.804905 0.33842,-2.143325 0,-0.33842 0.11281,-0.789646 0.1128,-0.564033 0.33842,-0.789646 0.33841,-0.451226 -1.12807,-1.128065 z m -16.01853,-21.320441 q 1.01526,0 1.46648,-0.225613 0.56404,-0.33842 1.91771,-0.789646 1.46649,-0.451226 6.7684,0 2.93297,0.564033 6.54278,2.932971 3.72262,1.804905 5.97875,4.963488 3.15858,8.347686 3.497,14.552047 0.22561,9.475752 -1.8049,15.680113 -2.82017,7.106813 -3.72262,8.347685 -0.22561,1.466486 -1.80491,3.835424 -0.56403,0 -0.90245,0.112806 0,0.112807 -0.67684,0.67684 -0.56403,0.676839 -1.6921,0.676839 -1.46648,0.33842 -1.8049,0.5640327 -0.22561,0.3384197 -1.12807,0.3384197 l -2.82016,0.2256132 -3.04578,0 q -3.04578,0 -4.85068,-0.7896456 l -3.3842,-2.256132 -1.12806,-1.353678 q -0.33842,0 -0.45123,-0.225614 0,-0.338419 -0.11281,-0.564032 -1.01526,-0.789646 -1.01526,-1.804905 -1.24087,-1.917712 -1.24087,-2.707358 0,-0.789646 -0.33842,-1.128066 0,-1.692098 -1.01526,-4.963488 l -0.22561,-1.579292 0,-1.240873 q -0.11281,-1.692098 -0.90245,-3.948229 0.22561,-0.225613 0,-1.240873 0,-2.59455 0.1128,-3.497003 l -0.33842,-1.466485 q 0.33842,-0.67684 0.22562,-1.240873 0,-0.564032 0.33842,-1.692098 l 0,-0.789646 0.45122,-3.94823 q 0,-0.789646 0.22562,-1.240872 l 0,-0.789646 q 0.22561,0 0.33842,-1.128066 l 0.56403,-0.902452 0.11281,-0.902453 q 0,-0.338419 -0.11281,-0.676839 l 0.56403,-1.692098 q 0,-0.225614 0.78965,-1.353679 0,-0.564033 0.78964,-1.692099 0,-0.564032 0.56404,-1.353678 0,-1.015259 1.24087,-2.594551 1.12806,-1.128066 2.03052,-1.128066 z"
           style="font-style:normal;font-variant:normal;font-weight:normal;font-stretch:normal;font-family:'Caveat Brush';-inkscape-font-specification:'Caveat Brush';letter-spacing:-5.68000031px;fill:#6481ff;fill-opacity:1;stroke:#6481ff;stroke-width:17.29999924;stroke-miterlimit:4;stroke-dasharray:none;stroke-opacity:1"
           id="path4161" />
        <path
           d="m -489.42808,-25.927882 q 1.01526,-2.368938 2.14332,-5.527522 l 2.48175,-6.317168 1.01526,-1.917711 q -22.89973,27.073575 0.45122,-0.564033 l 2.93297,-6.091555 q 0.33842,-0.338419 0.56404,-1.466485 l 2.93297,-4.399456 2.25613,-2.030518 q 0.67684,-0.33842 1.46648,-1.128066 0.22562,0.225613 1.80491,-0.451226 1.01526,0 4.06104,0.33842 l 2.25613,0.789646 5.07629,3.045777 q 1.57929,1.579292 1.35368,3.384197 -0.1128,1.353679 -1.24087,7.445233 -0.90245,4.850682 -2.59455,11.16785 -0.90245,5.076295 -0.56403,7.332427 0.33842,2.256131 0.33842,2.594551 0.22561,0.676839 0.56403,1.917711 0.45122,1.240872 0.22561,1.353679 0.78965,0.112807 0.78965,1.128066 0.90245,2.368938 0.56403,3.158583 -0.22561,0.902453 -1.46649,1.917712 -1.12806,1.0152591 -4.17384,1.0152591 -1.8049,-0.2256131 -2.93297,-0.2256131 -1.01526,0 -2.59455,-0.789646 -3.27139,-2.368938 -3.72262,-4.850682 -0.56403,-1.579292 -0.67684,-2.368938 -0.1128,-0.789646 -0.1128,-1.128066 -0.56404,-3.384197 0.1128,-6.994007 0.11281,-1.353678 1.01526,-5.527521 0.90246,-4.28665 1.80491,-6.768394 0,-2.481745 -0.11281,-2.594551 l -4.39945,8.573299 q -0.67684,1.804905 -1.24088,2.707357 -0.56403,0.564033 -0.56403,1.353679 -0.90245,0.902453 -1.6921,3.60981 0,0.789646 -0.1128,1.128066 -0.11281,0.338419 -0.90246,1.692098 -0.67684,1.240872 -1.01526,2.368938 -0.22561,1.128066 -1.35367,2.481744 0,0.451227 -1.46649,4.62507 -0.11281,0.451226 -2.36894,0.789646 l -2.14332,-0.225614 q -0.78965,-0.225613 -3.72262,-1.128065 -2.93297,-0.902453 -3.27139,-0.902453 -0.22561,0 -0.45123,-0.225613 -1.91771,-0.451226 -2.36893,-3.158584 l 0,-1.804905 q 0.56403,-0.676839 0.1128,-2.594551 0.22562,-1.128065 0.33842,-2.594551 -0.33842,-0.225613 -0.1128,-0.789646 0.22561,-3.60981 0.22561,-5.076295 l 0,-2.707358 q 0.22561,-3.722616 0.56403,-8.009266 0.33842,-4.286649 0.33842,-5.527521 l 0,-2.256132 q -0.22561,-0.564032 -0.1128,-2.594551 -0.22562,-2.143324 -0.56404,-2.594551 -0.33842,-0.564032 -0.22561,-1.579291 l 0.78965,-1.917712 q 1.8049,-1.466485 6.09155,-0.564033 1.91771,0.33842 5.30191,2.256131 0.22561,0.33842 1.12806,1.466486 0.67684,0 0.78965,1.917711 -0.11281,1.015259 -0.11281,1.692099 -0.1128,0.112806 -1.24087,5.189102 -2.48174,15.680112 -2.48174,17.033791 0,1.353679 0.22561,1.917712 z"
           style="font-style:normal;font-variant:normal;font-weight:normal;font-stretch:normal;font-family:'Caveat Brush';-inkscape-font-specification:'Caveat Brush';letter-spacing:-5.68000031px;fill:#6481ff;fill-opacity:1;stroke:#6481ff;stroke-width:17.29999924;stroke-miterlimit:4;stroke-dasharray:none;stroke-opacity:1"
           id="path4163" />
      </g>
      <g
         style="font-style:normal;font-weight:normal;font-size:112.80656433px;line-height:125%;font-family:sans-serif;letter-spacing:-5.68000031px;word-spacing:0px;fill:#ffffff;fill-opacity:1;stroke:#6481ff;stroke-width:3.0999999;stroke-linecap:butt;stroke-linejoin:miter;stroke-miterlimit:4;stroke-dasharray:none;stroke-opacity:1"
         id="text3835">
        <path
           d="m -662.05467,-69.01999 -0.78964,13.423981 q 0.56403,-0.33842 4.51226,-0.451226 3.94823,-0.225613 5.1891,0 l 4.17385,1.917712 q 1.57929,1.015259 3.72261,3.497003 1.35368,2.932971 -3.27139,4.512263 -4.39945,0.676839 -5.64033,0.676839 l -8.91172,0.451226 0,5.189102 q 0.67684,13.875208 0.67684,16.131339 0.56404,3.384197 0.56404,4.061036 l 0,2.481745 q 0,2.143324 -0.56404,2.707357 -1.35367,1.692099 -1.69209,1.804905 -4.62507,1.804905 -9.81418,-2.256131 l -1.8049,-2.368938 q 0,-0.451226 -0.67684,-3.384197 0.11281,-0.33842 -0.90245,-3.722616 0,-0.67684 0.22561,-1.692099 0.33842,-1.015259 0.33842,-2.256131 0,-1.240872 -0.56403,-2.594551 0,-1.466486 -0.22562,-2.594551 l 0,-1.128066 q 0.22562,-1.240872 0.22562,-2.594551 0.1128,-1.466485 0.33842,-2.820164 0.33842,-1.466485 0.1128,-2.707357 l 0,-0.33842 q -1.57929,-0.789646 -2.36893,-0.67684 -0.67684,0.112807 -1.5793,-0.676839 -0.78964,-0.902452 -0.90245,-1.692098 -0.1128,-0.789646 2.36894,-3.158584 0.22561,-0.451226 2.70736,-1.579292 l 0,-2.256131 0.56403,-6.317168 q -0.33842,-3.045777 0,-4.625069 0.33842,-1.579292 0.11281,-2.594551 l 0.67684,-2.481745 q -5.64033,1.01526 -8.12208,0.451227 -2.14332,-1.015259 -2.25613,-3.271391 -0.1128,-0.112806 0.56403,-3.27139 -0.33841,-1.579292 2.70736,-3.94823 2.48175,-1.128065 4.73788,-1.579292 4.28665,-1.466485 7.67084,-1.917711 6.65559,-1.128066 10.71663,-1.917712 l 5.30191,-1.917711 q 1.8049,-1.01526 2.48174,-0.902453 0.78965,0.112807 2.25613,-0.451226 0.22562,-0.564033 2.59455,-1.015259 4.85069,-0.902453 5.64033,1.015259 1.01526,0.225613 2.70736,1.579292 0.33842,0.112806 2.59455,4.399456 0.33842,0.902452 -0.33842,1.917711 -0.67684,0.902453 -2.14332,1.015259 l -3.04578,1.128066 q -1.35368,0.112807 -3.83542,1.240872 -4.62507,1.240872 -5.18911,1.240872 -0.56403,0 -1.12806,0.112807 -1.6921,0.33842 -3.60981,0.902453 -1.91771,0.564032 -3.27139,0.564032 -3.15859,0.67684 -3.49701,1.579292 -0.1128,0.225613 -0.1128,0.67684 l -0.22562,1.353678 0,1.128066 z"
           style="font-style:normal;font-variant:normal;font-weight:normal;font-stretch:normal;font-family:'Caveat Brush';-inkscape-font-specification:'Caveat Brush';letter-spacing:-5.68000031px;fill:#ffffff;fill-opacity:1;stroke:#6481ff;stroke-width:3.0999999;stroke-miterlimit:4;stroke-dasharray:none;stroke-opacity:1"
           id="path4140" />
        <path
           d="m -616.41473,-44.992192 q -0.11281,-2.481744 -1.12806,-3.722616 -1.01526,-1.353679 -3.72262,-1.579292 -0.78965,0.564033 -2.14333,3.835423 -1.24087,3.158584 -1.57929,6.768394 -1.12806,5.414715 -1.12806,10.82943 0.1128,5.527522 1.8049,8.122073 0.22561,0.451226 0.45123,0.338419 0.56403,0 1.8049,-2.256131 5.97875,-10.82943 5.64033,-22.3357 z m 3.497,21.546054 -1.69209,4.399456 q 0,0.225613 -3.27139,4.850682 -1.01526,2.143325 -3.83543,2.368938 -2.70736,0.225613 -5.30191,-0.564033 -3.497,-1.240872 -5.3019,-2.93297 -1.80491,-1.692099 -3.60981,-5.640329 -1.6921,-4.061036 -1.80491,-6.655587 -0.56403,-3.722616 -0.56403,-4.737876 l 0,-2.707357 q 0,-4.061036 0.33842,-4.737876 0.1128,-0.451226 0.56403,-2.368938 0.56403,-4.737875 2.70736,-9.024525 4.17384,-8.234879 8.5733,-8.460492 l 0.56403,0 q 0.22561,0.112806 0.67684,0.112806 l 1.46648,0 q 3.94823,0.33842 4.85069,0.67684 1.69209,0.451226 2.93297,0.451226 l 2.93297,0.564033 q 1.35368,-0.112807 3.497,0.564033 2.25613,0.676839 2.36894,1.015259 0.22561,0.338419 0.67684,2.481744 0.45122,2.143325 0.56403,3.158584 0.22561,0.902453 0.33842,1.917712 0.90245,8.234879 2.93297,15.341692 0.11281,0.33842 0.22561,1.015259 0.11281,0.67684 0.78965,2.707358 0.67684,1.917712 1.01526,3.27139 0.33842,1.353679 1.24087,3.60981 0.67684,1.692099 2.03052,3.94823 2.48174,3.497004 -2.59455,5.414715 -0.67684,0.225613 -2.36894,0.225613 -0.33842,0 -2.14332,-1.128065 -1.12807,0 -2.14333,-1.240872 l -0.90245,-0.225614 q -0.78965,-0.789646 -1.35368,-0.789646 -0.22561,-0.225613 -4.06104,-9.137331 -0.33842,1.240872 -0.33842,2.256131 z"
           style="font-style:normal;font-variant:normal;font-weight:normal;font-stretch:normal;font-family:'Caveat Brush';-inkscape-font-specification:'Caveat Brush';letter-spacing:-5.68000031px;fill:#ffffff;fill-opacity:1;stroke:#6481ff;stroke-width:3.0999999;stroke-miterlimit:4;stroke-dasharray:none;stroke-opacity:1"
           id="path4142" />
        <path
           d="m -591.45188,-72.96822 0.78964,-6.655587 0.11281,-3.497004 q 0,-1.466485 0.56403,-2.256131 l 1.12807,-1.579292 q 3.04578,-2.368938 3.94823,-2.707357 0.90245,-0.33842 2.59455,0.112806 1.80491,0.33842 2.14332,0.67684 l 1.24088,1.015259 q 1.01526,0.564033 1.01526,1.804905 0.56403,0.676839 0.33842,1.015259 -0.67684,0.789646 -2.25614,13.311174 l -0.90245,15.341693 -0.56403,3.045777 q 0,1.466486 0.11281,1.692099 l 0,2.030518 q -0.22562,2.256131 -0.45123,2.820164 0,0.564033 -0.22561,1.240872 0.22561,0.225614 0.22561,1.804905 0,1.466486 -0.33842,1.804905 -0.22561,1.804906 -0.22561,3.497004 0,1.579292 0.22561,3.384197 0.33842,1.692098 0.22561,3.384197 l 0.45123,4.286649 0,1.692099 q 0.22561,2.030518 0.22561,3.27139 l 0.56404,5.865941 0.45122,3.045778 q 0.33842,1.917711 -0.33842,3.7226163 -0.56403,1.804905 -1.8049,2.2561313 -3.49701,1.4664853 -7.67085,-1.9177116 l -0.90245,0 q -0.78965,-0.902453 -1.24087,-2.481744 -0.90246,-0.451227 -0.78965,-1.579292 0.11281,-1.128066 -0.45123,-2.030518 -0.56403,-0.902453 -0.56403,-1.579292 0,-1.466486 -0.22561,-2.594551 l 0.1128,-0.902453 q -0.33842,-0.33842 -0.33842,-1.015259 l -0.22561,-2.030518 0,-0.902453 q 0,-0.902452 -0.11281,-1.240872 0,-0.33842 0.33842,-1.128065 -0.33842,-0.451227 -0.1128,-3.271391 0.67684,-8.686105 0.67684,-11.957496 l 0.1128,-2.707357 0,-3.271391 q 0.11281,-2.707357 0.11281,-6.8812 0.11281,-4.173843 0.45123,-4.512263 l -0.11281,-1.015259 q 0,-2.707357 0.78965,-7.332426 0.90245,-4.737876 0.90245,-5.076296 z"
           style="font-style:normal;font-variant:normal;font-weight:normal;font-stretch:normal;font-family:'Caveat Brush';-inkscape-font-specification:'Caveat Brush';letter-spacing:-5.68000031px;fill:#ffffff;fill-opacity:1;stroke:#6481ff;stroke-width:3.0999999;stroke-miterlimit:4;stroke-dasharray:none;stroke-opacity:1"
           id="path4144" />
        <path
           d="m -562.36102,-60.221078 q 3.83542,-3.158584 11.84469,-0.902452 1.91771,0.902452 3.497,2.707357 0.78965,1.240872 1.24087,3.94823 0.45123,2.707357 0.11281,5.640328 -0.22561,2.932971 -1.57929,5.076295 -1.24087,2.030519 -4.51226,2.707358 -2.36894,0 -2.93298,-1.466485 -1.01525,-2.143325 -0.45122,-3.722617 0.33842,-2.368938 -0.67684,-5.640328 -0.22561,-0.225613 -1.12807,-0.225613 l -1.35368,2.481744 q -0.22561,0.451226 -1.91771,6.768394 -1.57929,6.204361 -1.6921,7.896459 -0.1128,1.579292 -0.33842,2.932971 0,7.783653 1.12807,10.942237 1.12807,3.045777 2.25613,3.722616 0.33842,0.33842 1.91771,0.33842 1.6921,0 3.60981,-0.902452 1.6921,-1.240873 3.15859,-3.271391 0,-0.451226 1.91771,-1.353678 l 0.90245,-0.902453 q 4.17384,-0.451226 4.39946,3.60981 0.22561,1.128066 -0.67684,2.481744 -0.56403,1.353679 -0.78965,1.466486 0,0.451226 -3.04578,5.189102 -1.12806,0 -1.57929,0.451226 -2.14332,1.6920985 -5.1891,1.2408723 -0.33842,-0.1128066 -0.67684,-0.1128066 -0.33842,0 -3.497,-0.5640328 l -1.57929,0 q -2.93297,-0.6768399 -3.94823,-1.4664849 -1.35368,-0.33842 -3.15859,-1.466486 l -1.57929,-1.579292 q -0.33842,-0.112806 -1.46648,-1.015259 -1.01526,-1.015259 -1.24088,-1.466485 -0.1128,-0.564033 -0.78964,-1.579292 -0.56404,-1.128066 -0.56404,-2.030518 l -0.56403,-2.256131 q 0,-1.353679 -0.33842,-1.692099 0,-0.225613 -0.33842,-1.240872 0,-1.240872 -0.22561,-3.384197 -0.33842,-3.497004 0.56403,-4.399456 0.11281,0 -0.22561,-2.030518 l 0,-4.061037 q 0,-1.804905 1.01526,-4.850682 0.1128,-1.466485 1.35368,-3.94823 l 0.56403,-1.466485 q 0.22561,-1.804905 1.91771,-3.722617 l 1.6921,-2.030518 1.35368,-2.256131 q 1.35368,-1.804905 3.60981,-2.594551 z"
           style="font-style:normal;font-variant:normal;font-weight:normal;font-stretch:normal;font-family:'Caveat Brush';-inkscape-font-specification:'Caveat Brush';letter-spacing:-5.68000031px;fill:#ffffff;fill-opacity:1;stroke:#6481ff;stroke-width:3.0999999;stroke-miterlimit:4;stroke-dasharray:none;stroke-opacity:1"
           id="path4146" />
        <path
           d="m -515.96317,-39.915896 -0.56403,-2.932971 q 0,-0.33842 -0.22562,-0.789646 -0.1128,-0.451226 -0.33842,-1.692098 -0.90245,-0.67684 -1.24087,-1.01526 l -0.56403,-0.902452 -0.33842,-1.015259 q -0.56403,-0.33842 -0.67684,-0.902453 0,-0.676839 -0.45123,-1.015259 -0.33842,-0.451226 -0.56403,-0.789646 -0.22561,-0.451226 -0.45123,-0.564032 -1.01525,-0.67684 -2.70735,-0.112807 -1.6921,0.564033 -2.03052,1.579292 -1.91771,4.286649 -1.91771,5.527521 -1.57929,5.414716 -0.90246,7.670847 -0.22561,3.60981 0.90246,9.926978 l 0,1.240872 q 1.01526,1.353679 1.91771,3.60981 1.12806,1.466485 1.46648,2.143325 0.45123,0.564032 0.56404,0.676839 1.12806,0.789646 1.35368,1.128066 0.90245,-0.451227 1.24087,-0.67684 l 0,-0.789646 q 0.56403,-0.451226 1.01526,-0.676839 -0.11281,0 0.78964,-0.789646 l 0.56404,-0.564033 q 1.69209,-3.60981 1.69209,-3.722617 0,-0.225613 -0.1128,-0.789646 -0.45123,-1.015259 0.56403,-1.579291 0,0 1.35368,-3.94823 l 0,-0.67684 q 0.22561,-0.676839 -0.22561,-1.015259 l 0,-0.789646 q 0.22561,-0.451226 0.22561,-0.902452 0.45123,-1.804905 0.33842,-2.143325 0,-0.33842 0.11281,-0.789646 0.1128,-0.564033 0.33842,-0.789646 0.33841,-0.451226 -1.12807,-1.128065 z m -16.01853,-21.320441 q 1.01526,0 1.46648,-0.225613 0.56404,-0.33842 1.91771,-0.789646 1.46649,-0.451226 6.7684,0 2.93297,0.564033 6.54278,2.932971 3.72262,1.804905 5.97875,4.963488 3.15858,8.347686 3.497,14.552047 0.22561,9.475752 -1.8049,15.680113 -2.82017,7.106813 -3.72262,8.347685 -0.22561,1.466486 -1.80491,3.835424 -0.56403,0 -0.90245,0.112806 0,0.112807 -0.67684,0.67684 -0.56403,0.676839 -1.6921,0.676839 -1.46648,0.33842 -1.8049,0.5640327 -0.22561,0.3384197 -1.12807,0.3384197 l -2.82016,0.2256132 -3.04578,0 q -3.04578,0 -4.85068,-0.7896456 l -3.3842,-2.256132 -1.12806,-1.353678 q -0.33842,0 -0.45123,-0.225614 0,-0.338419 -0.11281,-0.564032 -1.01526,-0.789646 -1.01526,-1.804905 -1.24087,-1.917712 -1.24087,-2.707358 0,-0.789646 -0.33842,-1.128066 0,-1.692098 -1.01526,-4.963488 l -0.22561,-1.579292 0,-1.240873 q -0.11281,-1.692098 -0.90245,-3.948229 0.22561,-0.225613 0,-1.240873 0,-2.59455 0.1128,-3.497003 l -0.33842,-1.466485 q 0.33842,-0.67684 0.22562,-1.240873 0,-0.564032 0.33842,-1.692098 l 0,-0.789646 0.45122,-3.94823 q 0,-0.789646 0.22562,-1.240872 l 0,-0.789646 q 0.22561,0 0.33842,-1.128066 l 0.56403,-0.902452 0.11281,-0.902453 q 0,-0.338419 -0.11281,-0.676839 l 0.56403,-1.692098 q 0,-0.225614 0.78965,-1.353679 0,-0.564033 0.78964,-1.692099 0,-0.564032 0.56404,-1.353678 0,-1.015259 1.24087,-2.594551 1.12806,-1.128066 2.03052,-1.128066 z"
           style="font-style:normal;font-variant:normal;font-weight:normal;font-stretch:normal;font-family:'Caveat Brush';-inkscape-font-specification:'Caveat Brush';letter-spacing:-5.68000031px;fill:#ffffff;fill-opacity:1;stroke:#6481ff;stroke-width:3.0999999;stroke-miterlimit:4;stroke-dasharray:none;stroke-opacity:1"
           id="path4148" />
        <path
           d="m -489.42808,-25.927882 q 1.01526,-2.368938 2.14332,-5.527522 l 2.48175,-6.317168 1.01526,-1.917711 q -22.89973,27.073575 0.45122,-0.564033 l 2.93297,-6.091555 q 0.33842,-0.338419 0.56404,-1.466485 l 2.93297,-4.399456 2.25613,-2.030518 q 0.67684,-0.33842 1.46648,-1.128066 0.22562,0.225613 1.80491,-0.451226 1.01526,0 4.06104,0.33842 l 2.25613,0.789646 5.07629,3.045777 q 1.57929,1.579292 1.35368,3.384197 -0.1128,1.353679 -1.24087,7.445233 -0.90245,4.850682 -2.59455,11.16785 -0.90245,5.076295 -0.56403,7.332427 0.33842,2.256131 0.33842,2.594551 0.22561,0.676839 0.56403,1.917711 0.45122,1.240872 0.22561,1.353679 0.78965,0.112807 0.78965,1.128066 0.90245,2.368938 0.56403,3.158583 -0.22561,0.902453 -1.46649,1.917712 -1.12806,1.0152591 -4.17384,1.0152591 -1.8049,-0.2256131 -2.93297,-0.2256131 -1.01526,0 -2.59455,-0.789646 -3.27139,-2.368938 -3.72262,-4.850682 -0.56403,-1.579292 -0.67684,-2.368938 -0.1128,-0.789646 -0.1128,-1.128066 -0.56404,-3.384197 0.1128,-6.994007 0.11281,-1.353678 1.01526,-5.527521 0.90246,-4.28665 1.80491,-6.768394 0,-2.481745 -0.11281,-2.594551 l -4.39945,8.573299 q -0.67684,1.804905 -1.24088,2.707357 -0.56403,0.564033 -0.56403,1.353679 -0.90245,0.902453 -1.6921,3.60981 0,0.789646 -0.1128,1.128066 -0.11281,0.338419 -0.90246,1.692098 -0.67684,1.240872 -1.01526,2.368938 -0.22561,1.128066 -1.35367,2.481744 0,0.451227 -1.46649,4.62507 -0.11281,0.451226 -2.36894,0.789646 l -2.14332,-0.225614 q -0.78965,-0.225613 -3.72262,-1.128065 -2.93297,-0.902453 -3.27139,-0.902453 -0.22561,0 -0.45123,-0.225613 -1.91771,-0.451226 -2.36893,-3.158584 l 0,-1.804905 q 0.56403,-0.676839 0.1128,-2.594551 0.22562,-1.128065 0.33842,-2.594551 -0.33842,-0.225613 -0.1128,-0.789646 0.22561,-3.60981 0.22561,-5.076295 l 0,-2.707358 q 0.22561,-3.722616 0.56403,-8.009266 0.33842,-4.286649 0.33842,-5.527521 l 0,-2.256132 q -0.22561,-0.564032 -0.1128,-2.594551 -0.22562,-2.143324 -0.56404,-2.594551 -0.33842,-0.564032 -0.22561,-1.579291 l 0.78965,-1.917712 q 1.8049,-1.466485 6.09155,-0.564033 1.91771,0.33842 5.30191,2.256131 0.22561,0.33842 1.12806,1.466486 0.67684,0 0.78965,1.917711 -0.11281,1.015259 -0.11281,1.692099 -0.1128,0.112806 -1.24087,5.189102 -2.48174,15.680112 -2.48174,17.033791 0,1.353679 0.22561,1.917712 z"
           style="font-style:normal;font-variant:normal;font-weight:normal;font-stretch:normal;font-family:'Caveat Brush';-inkscape-font-specification:'Caveat Brush';letter-spacing:-5.68000031px;fill:#ffffff;fill-opacity:1;stroke:#6481ff;stroke-width:3.0999999;stroke-miterlimit:4;stroke-dasharray:none;stroke-opacity:1"
           id="path4150" />
      </g>
    </g>
  </g>
</svg>
